<svg width="50" height="50" viewBox="0 0 50 50" fill="none" xmlns="http://www.w3.org/2000/svg">
<path opacity="0.9" d="M23.7451 15.6605C15.5596 15.9534 9.07281 19.8131 9.07281 24.504C9.07281 29.3857 16.0962 33.3476 24.75 33.3476C33.4038 33.3476 40.4272 29.3857 40.4272 24.504C40.4272 19.6224 33.4038 15.6605 24.75 15.6605C24.412 15.6605 24.0778 15.6486 23.7451 15.6605ZM21.1322 17.3689C23.3156 17.1454 26.0653 18.1577 28.3678 20.2329C31.8169 23.3413 32.9845 27.6999 30.9807 29.9809L30.9305 30.0312C28.887 32.2986 24.3986 31.5986 20.9312 28.4735C17.4638 25.3485 16.3252 20.9426 18.3686 18.6753C19.0551 17.9136 20.0277 17.4819 21.1322 17.3689Z" fill="black"/>
</svg>
