<svg width="50" height="50" viewBox="0 0 50 50" fill="none" xmlns="http://www.w3.org/2000/svg">
<path fill-rule="evenodd" clip-rule="evenodd" d="M17.4201 35.563C14.0242 37.383 12.2148 40.6775 13.3278 43.1559C14.5151 45.7996 18.5949 46.5457 22.4344 44.8213C26.274 43.097 28.4266 39.5519 27.2393 36.9083C26.0521 34.2647 21.9723 33.5186 18.1327 35.2429C17.8928 35.3507 17.6465 35.4417 17.4201 35.563Z" fill="black"/>
<path fill-rule="evenodd" clip-rule="evenodd" d="M27.7875 4.74994V38.3375H26.2875V4.74994H27.7875Z" fill="black"/>
<path fill-rule="evenodd" clip-rule="evenodd" d="M27.0329 5.70978C26.4704 12.0223 31.8754 14.2835 34.5329 17.2098C37.0589 19.9912 37.9816 23.1995 37.8784 26.2054C37.8508 27.0079 37.6329 30.4855 35.2639 33.9721C38.4318 25.225 35.4824 21.714 32.6009 18.9205C29.111 15.5371 26.5148 12.3483 27.0329 5.70978Z" fill="black"/>
</svg>
