<svg width="50" height="50" viewBox="0 0 50 50" fill="none" xmlns="http://www.w3.org/2000/svg">
<path fill-rule="evenodd" clip-rule="evenodd" d="M28.1458 44.6713C31.5416 42.8513 33.351 39.5567 32.238 37.0783C31.0507 34.4347 26.971 33.6886 23.1314 35.4129C19.2918 37.1373 17.1392 40.6823 18.3265 43.326C19.5138 45.9696 23.5935 46.7157 27.4331 44.9913C27.673 44.8836 27.9194 44.7926 28.1458 44.6713ZM27.036 42.4291C26.7948 42.5534 26.5505 42.6471 26.2948 42.762C23.0218 44.2319 19.8606 44.301 19.2387 42.9163C18.6168 41.5315 20.7685 39.2147 24.0416 37.7447C27.3147 36.2748 30.4758 36.2056 31.0977 37.5904C31.671 38.867 29.8826 40.962 27.036 42.4291Z" fill="black"/>
<path fill-rule="evenodd" clip-rule="evenodd" d="M32.5283 4.75031V38.3379H31.0283V4.75031H32.5283Z" fill="black"/>
</svg>
