<svg width="50" height="50" viewBox="0 0 50 50" fill="none" xmlns="http://www.w3.org/2000/svg">
<path fill-rule="evenodd" clip-rule="evenodd" d="M17.42 36.813C14.0242 38.6329 12.2147 41.9275 13.3278 44.4059C14.5151 47.0496 18.5948 47.7957 22.4344 46.0713C26.2739 44.3469 28.4265 40.8019 27.2393 38.1583C26.052 35.5146 21.9723 34.7686 18.1327 36.4929C17.8927 36.6007 17.6464 36.6916 17.42 36.813Z" fill="black"/>
<path fill-rule="evenodd" clip-rule="evenodd" d="M27.7875 2.74991V39.5875H26.2875V2.74991H27.7875Z" fill="black"/>
<path fill-rule="evenodd" clip-rule="evenodd" d="M26.5328 3.45975C25.9703 9.77225 31.3754 12.0335 34.0328 14.9597C36.5588 17.7412 37.4815 20.9495 37.3783 23.9553C37.3508 24.7579 37.1329 28.2355 34.7639 31.7221C37.9318 22.975 34.9823 19.464 32.1009 16.6705C28.611 13.287 26.0148 10.0983 26.5328 3.45975Z" fill="black"/>
<path fill-rule="evenodd" clip-rule="evenodd" d="M26.2994 9.49376C25.7369 15.8063 31.1419 18.0675 33.7994 20.9938C36.3253 23.7752 37.248 26.9835 37.1449 29.9894C37.1173 30.7919 36.8994 34.2695 34.5304 37.7561C37.6983 29.009 34.7489 25.498 31.8675 22.7045C28.3775 19.321 25.7813 16.1323 26.2994 9.49376Z" fill="black"/>
</svg>
